<svg xmlns="http://www.w3.org/2000/svg" width="1285" height="463" viewBox="0 0 1285 463" fill="none">
  <path d="M1 360.197V361.197H2H240.414V453.392V454.392H241.414H341.752H342.752V453.392V361.197H414.147H415.147V360.197V276.512V275.512H414.147H342.752V193.461V192.461H341.752H244.589H243.589V193.461V275.512H126.996L320.333 10.1966L321.491 8.60771H319.525H211.567H211.064L210.764 9.01054L1.19789 290.497L1 290.763V291.094V360.197ZM537.101 435.219L537.11 435.224C566.069 453.08 598.852 462 635.433 462C672.434 462 705.22 453.081 733.761 435.221L733.764 435.219C762.729 416.933 785.498 390.577 802.081 356.194C818.674 321.791 826.948 280.215 826.948 231.5C826.948 182.785 818.674 141.209 802.081 106.806C785.499 72.4242 762.73 46.2783 733.763 28.4148C705.223 10.1309 672.435 1 635.433 1C598.85 1 566.064 10.1326 537.105 28.4128C508.137 46.2764 485.367 72.423 468.784 106.806C452.192 141.209 443.918 182.785 443.918 231.5C443.918 280.215 452.192 321.791 468.784 356.194C485.367 390.577 508.136 416.933 537.101 435.219ZM679.926 358.76L679.92 358.765L679.913 358.769C667.402 368.345 652.591 373.145 635.433 373.145C618.706 373.145 603.889 368.35 590.945 358.764C578.45 349.198 568.384 333.965 560.805 312.95C553.658 291.961 550.066 264.823 550.066 231.5C550.066 198.177 553.658 171.039 560.805 150.05C568.384 129.035 578.451 113.801 590.945 104.236C603.889 94.65 618.706 89.8549 635.433 89.8549C652.591 89.8549 667.402 94.6547 679.913 104.231L679.92 104.235L679.926 104.24C692.837 113.803 702.902 129.03 710.057 150.039L710.06 150.048L710.063 150.056C717.63 171.041 721.434 198.175 721.434 231.5C721.434 264.825 717.63 291.959 710.063 312.944L710.06 312.952L710.057 312.961C702.902 333.97 692.837 349.197 679.926 358.76ZM869.853 360.197V361.197H870.853H1109.27V453.392V454.392H1110.27H1210.6H1211.6V453.392V361.197H1283H1284V360.197V276.512V275.512H1283H1211.6V193.461V192.461H1210.6H1113.44H1112.44V193.461V275.512H995.848L1189.19 10.1966L1190.34 8.60771H1188.38H1080.42H1079.92L1079.62 9.01054L870.05 290.497L869.853 290.763V291.094V360.197Z" stroke="url(#paint0_linear_3512_5541)" stroke-width="2"/>
  <defs>
    <linearGradient id="paint0_linear_3512_5541" x1="642.5" y1="2" x2="642.5" y2="461" gradientUnits="userSpaceOnUse">
      <stop stop-color="#96C73C" stop-opacity="0.24"/>
      <stop offset="1" stop-color="#49611D" stop-opacity="0.02"/>
    </linearGradient>
  </defs>
</svg>