<svg width="23" height="23" viewBox="0 0 23 23" fill="none" xmlns="http://www.w3.org/2000/svg">
<path d="M16.7312 12.1875H5.7312C5.35537 12.1875 5.0437 11.8758 5.0437 11.5C5.0437 11.1242 5.35537 10.8125 5.7312 10.8125H16.7312C17.107 10.8125 17.4187 11.1242 17.4187 11.5C17.4187 11.8758 17.107 12.1875 16.7312 12.1875Z" fill="white"/>
<path d="M11.2312 17.6875C10.8554 17.6875 10.5437 17.3758 10.5437 17L10.5437 6C10.5437 5.62417 10.8554 5.3125 11.2312 5.3125C11.607 5.3125 11.9187 5.62417 11.9187 6L11.9187 17C11.9187 17.3758 11.607 17.6875 11.2312 17.6875Z" fill="white"/>
</svg>
