<svg width="19" height="20" viewBox="0 0 19 20" fill="none" xmlns="http://www.w3.org/2000/svg">
<path d="M14.1317 10.5888H4.71053C4.38864 10.5888 4.1217 10.3219 4.1217 10C4.1217 9.67813 4.38864 9.41119 4.71053 9.41119H14.1317C14.4536 9.41119 14.7205 9.67813 14.7205 10C14.7205 10.3219 14.4536 10.5888 14.1317 10.5888Z" fill="#B2D235"/>
<path d="M9.4211 15.2994C9.09921 15.2994 8.83228 15.0325 8.83228 14.7106L8.83228 5.28944C8.83228 4.96755 9.09921 4.70062 9.4211 4.70062C9.74299 4.70062 10.0099 4.96755 10.0099 5.28944L10.0099 14.7106C10.0099 15.0325 9.74299 15.2994 9.4211 15.2994Z" fill="#B2D235"/>
</svg>
