<svg xmlns="http://www.w3.org/2000/svg" width="25" height="24" viewBox="0 0 25 24" fill="none">
  <path d="M12.4058 12.25C11.9658 12.25 11.5258 12.14 11.1258 11.93L4.61576 8.42001C4.02576 8.10001 3.65576 7.47001 3.65576 6.77001C3.65576 6.07001 4.02576 5.44001 4.61576 5.12001L11.1258 1.61001C11.9258 1.18001 12.8858 1.18001 13.6758 1.61001L20.1858 5.12001C20.7758 5.44001 21.1458 6.07001 21.1458 6.77001C21.1458 7.47001 20.7758 8.10001 20.1858 8.42001L13.6758 11.93C13.2858 12.15 12.8458 12.25 12.4058 12.25ZM12.4058 2.78001C12.2158 2.78001 12.0158 2.83001 11.8358 2.93001L5.33576 6.43001C5.16576 6.52001 5.15576 6.71001 5.15576 6.77001C5.15576 6.83001 5.16576 7.02001 5.33576 7.10001L11.8458 10.61C12.2058 10.8 12.6158 10.8 12.9758 10.61L19.4858 7.10001C19.6458 7.01001 19.6658 6.82001 19.6658 6.77001C19.6658 6.71001 19.6558 6.52001 19.4858 6.44001L12.9758 2.93001C12.7958 2.83001 12.5958 2.78001 12.4058 2.78001Z" fill="white"/>
  <path d="M10.1858 22.72C9.90576 22.72 9.61576 22.65 9.35576 22.52L3.29576 19.5C2.28576 18.99 1.65576 17.97 1.65576 16.84L1.65576 11.12C1.65576 10.47 1.98576 9.88 2.53576 9.54C3.09576 9.2 3.76576 9.17 4.34576 9.46L10.4058 12.48C11.4158 12.99 12.0458 14 12.0458 15.14L12.0458 20.86C12.0458 21.51 11.7158 22.1 11.1658 22.44C10.8658 22.63 10.5258 22.72 10.1858 22.72ZM3.51576 10.76C3.43576 10.76 3.36576 10.79 3.32576 10.81C3.26576 10.85 3.15576 10.94 3.15576 11.12L3.15576 16.84C3.15576 17.4 3.46576 17.91 3.96576 18.16L10.0158 21.19C10.1758 21.27 10.3058 21.21 10.3658 21.18C10.4258 21.14 10.5358 21.05 10.5358 20.87L10.5358 15.15C10.5358 14.59 10.2258 14.08 9.72576 13.83L3.67576 10.8C3.61576 10.77 3.56576 10.76 3.51576 10.76Z" fill="white"/>
  <path d="M14.6256 22.72C14.2856 22.72 13.9456 22.63 13.6456 22.44C13.0956 22.1 12.7656 21.51 12.7656 20.86L12.7656 15.14C12.7656 14.01 13.3956 12.99 14.4056 12.48L20.4556 9.45C21.0356 9.16 21.7156 9.19 22.2656 9.53C22.8156 9.87 23.1456 10.46 23.1456 11.11L23.1456 16.83C23.1456 17.96 22.5156 18.98 21.5056 19.49L15.4556 22.52C15.1956 22.66 14.9056 22.72 14.6256 22.72ZM21.2956 10.76C21.2456 10.76 21.1956 10.77 21.1356 10.8L15.0856 13.83C14.5856 14.08 14.2756 14.58 14.2756 15.15L14.2756 20.87C14.2756 21.05 14.3856 21.14 14.4456 21.18C14.5056 21.22 14.6356 21.27 14.7956 21.19L20.8456 18.16C21.3456 17.91 21.6556 17.4 21.6556 16.84L21.6556 11.12C21.6556 10.94 21.5456 10.85 21.4856 10.81C21.4456 10.79 21.3756 10.76 21.2956 10.76Z" fill="white" fill-opacity="0.5"/>
</svg>