  <svg
                    xmlns="http://www.w3.org/2000/svg"
                    width="13"
                    height="13"
                    viewBox="0 0 13 13"
                    fill="none"
                  >
                    <path
                      d="M12.4854 9.87858L9.05505 6.44975L12.3671 3.13915C13.0532 2.45339 13.0532 1.31833 12.3671 0.632561C11.6811 -0.0532055 10.5455 -0.0532055 9.85942 0.632561L6.54732 3.94316L3.11692 0.514325C2.43085 -0.171442 1.29527 -0.171442 0.609192 0.514325C-0.0768859 1.20009 -0.0768859 2.33515 0.609192 3.02092L4.03958 6.44975L0.514559 9.97317C-0.17152 10.6589 -0.17152 11.794 0.514559 12.4798C0.869426 12.8345 1.31893 13 1.76843 13C2.21793 13 2.66743 12.8345 3.0223 12.4798L6.54732 8.95634L9.9777 12.3852C10.3326 12.7399 10.7821 12.9054 11.2316 12.9054C11.6811 12.9054 12.1306 12.7399 12.4854 12.3852C13.1715 11.6994 13.1715 10.588 12.4854 9.87858Z"
                      fill="#292D32"
                    />
                  </svg>