<svg width="23" height="23" viewBox="0 0 23 23" fill="none" xmlns="http://www.w3.org/2000/svg">
<path d="M18.9576 9.84087H16.3085C14.136 9.84087 12.3668 8.07171 12.3668 5.89921L12.3668 3.25004C12.3668 2.74587 11.9543 2.33337 11.4501 2.33337H7.56348C4.74014 2.33337 2.45764 4.16671 2.45764 7.43921L2.45764 15.5609C2.45764 18.8334 4.74014 20.6667 7.56348 20.6667H14.7685C17.5918 20.6667 19.8743 18.8334 19.8743 15.5609L19.8743 10.7575C19.8743 10.2534 19.4618 9.84087 18.9576 9.84087ZM10.7351 12.9025C10.5976 13.04 10.4235 13.1042 10.2493 13.1042C10.0751 13.1042 9.90098 13.04 9.76348 12.9025L9.10348 12.2425L9.10348 16.0834C9.10348 16.4592 8.79181 16.7709 8.41598 16.7709C8.04014 16.7709 7.72848 16.4592 7.72848 16.0834L7.72848 12.2425L7.06848 12.9025C6.80264 13.1684 6.36264 13.1684 6.09681 12.9025C5.83098 12.6367 5.83098 12.1967 6.09681 11.9309L7.93014 10.0975C7.99431 10.0425 8.05848 9.99671 8.13181 9.96004C8.15014 9.95087 8.17764 9.94171 8.19598 9.93254C8.25098 9.91421 8.30598 9.90504 8.37014 9.89587C8.39764 9.89587 8.41598 9.89587 8.44348 9.89587C8.51681 9.89587 8.59014 9.91421 8.66348 9.94171C8.67264 9.94171 8.67264 9.94171 8.68181 9.94171C8.75514 9.96921 8.82848 10.0242 8.88348 10.0792C8.89264 10.0884 8.90181 10.0884 8.90181 10.0975L10.7351 11.9309C11.001 12.1967 11.001 12.6367 10.7351 12.9025Z" fill="white"/>
<path d="M16.1435 8.57579C17.0143 8.58495 18.2243 8.58495 19.2602 8.58495C19.7827 8.58495 20.0577 7.97079 19.691 7.60412C18.371 6.27495 16.006 3.88245 14.6493 2.52579C14.2735 2.14995 13.6227 2.40662 13.6227 2.92912L13.6227 6.12829C13.6227 7.46662 14.7593 8.57579 16.1435 8.57579Z" fill="white"/>
</svg>
