<svg width="24" height="25" viewBox="0 0 24 25" fill="none" xmlns="http://www.w3.org/2000/svg">
<path d="M17 23.25H7C2.59 23.25 1.25 21.91 1.25 17.5V7.5C1.25 3.09 2.59 1.75 7 1.75H8.5C10.25 1.75 10.8 2.32 11.5 3.25L13 5.25C13.33 5.69 13.38 5.75 14 5.75H17C21.41 5.75 22.75 7.09 22.75 11.5V17.5C22.75 21.91 21.41 23.25 17 23.25ZM7 3.25C3.43 3.25 2.75 3.93 2.75 7.5V17.5C2.75 21.07 3.43 21.75 7 21.75H17C20.57 21.75 21.25 21.07 21.25 17.5V11.5C21.25 7.93 20.57 7.25 17 7.25H14C12.72 7.25 12.3 6.81 11.8 6.15L10.3 4.15C9.78 3.46 9.63 3.25 8.5 3.25H7Z" fill="#B2D235"/>
</svg>
