<svg xmlns="http://www.w3.org/2000/svg" width="25" height="24" viewBox="0 0 25 24" fill="none">
  <path d="M18.1958 22.75H6.61576C3.87576 22.75 1.65576 20.52 1.65576 17.78L1.65576 10.37C1.65576 9.01 2.49576 7.3 3.57576 6.46L8.96576 2.26C10.5858 0.999997 13.1758 0.939997 14.8558 2.12L21.0358 6.45C22.2258 7.28 23.1558 9.06 23.1558 10.51L23.1558 17.79C23.1558 20.52 20.9358 22.75 18.1958 22.75ZM9.88576 3.44L4.49576 7.64C3.78576 8.2 3.15576 9.47 3.15576 10.37L3.15576 17.78C3.15576 19.69 4.70576 21.25 6.61576 21.25H18.1958C20.1058 21.25 21.6558 19.7 21.6558 17.79L21.6558 10.51C21.6558 9.55 20.9658 8.22 20.1758 7.68L13.9958 3.35C12.8558 2.55 10.9758 2.59 9.88576 3.44Z" fill="white" fill-opacity="0.5"/>
  <path d="M12.4058 18.75C11.9958 18.75 11.6558 18.41 11.6558 18L11.6558 15C11.6558 14.59 11.9958 14.25 12.4058 14.25C12.8158 14.25 13.1558 14.59 13.1558 15L13.1558 18C13.1558 18.41 12.8158 18.75 12.4058 18.75Z" fill="white" fill-opacity="0.5"/>
</svg>