<svg xmlns="http://www.w3.org/2000/svg" width="20" height="20" viewBox="0 0 20 20" fill="none">
  <path d="M14.8498 10.5888H5.42867C5.10678 10.5888 4.83984 10.3219 4.83984 10C4.83984 9.67813 5.10678 9.41119 5.42867 9.41119H14.8498C15.1717 9.41119 15.4386 9.67813 15.4386 10C15.4386 10.3219 15.1717 10.5888 14.8498 10.5888Z" fill="black"/>
  <path d="M10.1391 15.2994C9.81723 15.2994 9.55029 15.0325 9.55029 14.7106L9.55029 5.28944C9.55029 4.96755 9.81723 4.70062 10.1391 4.70062C10.461 4.70062 10.7279 4.96755 10.7279 5.28944L10.7279 14.7106C10.7279 15.0325 10.461 15.2994 10.1391 15.2994Z" fill="black"/>
</svg>