<svg xmlns="http://www.w3.org/2000/svg" width="19" height="20" viewBox="0 0 19 20" fill="none">
  <path d="M14.1315 10.5888H4.7104C4.38851 10.5888 4.12158 10.3219 4.12158 10C4.12158 9.67813 4.38851 9.41119 4.7104 9.41119H14.1315C14.4534 9.41119 14.7204 9.67813 14.7204 10C14.7204 10.3219 14.4534 10.5888 14.1315 10.5888Z" fill="#B2D235"/>
  <path d="M9.42134 15.2994C9.09945 15.2994 8.83252 15.0325 8.83252 14.7106L8.83252 5.28944C8.83252 4.96755 9.09945 4.70062 9.42134 4.70062C9.74323 4.70062 10.0102 4.96755 10.0102 5.28944L10.0102 14.7106C10.0102 15.0325 9.74323 15.2994 9.42134 15.2994Z" fill="#B2D235"/>
</svg>