  <svg
              xmlns="http://www.w3.org/2000/svg"
              width="28"
              height="28"
              viewBox="0 0 28 28"
              fill="none"
            >
              <path
                d="M11.1652 21.9567C10.9435 21.9567 10.7218 21.875 10.5468 21.7L3.46518 14.6183C3.12684 14.28 3.12684 13.72 3.46518 13.3817L10.5468 6.3C10.8852 5.96167 11.4452 5.96167 11.7835 6.3C12.1218 6.63833 12.1218 7.19833 11.7835 7.53667L5.32018 14L11.7835 20.4633C12.1218 20.8017 12.1218 21.3617 11.7835 21.7C11.6202 21.875 11.3868 21.9567 11.1652 21.9567Z"
                fill="white"
              />
              <path
                d="M23.9167 14.875H4.28174C3.8034 14.875 3.40674 14.4783 3.40674 14C3.40674 13.5217 3.8034 13.125 4.28174 13.125H23.9167C24.3951 13.125 24.7917 13.5217 24.7917 14C24.7917 14.4783 24.3951 14.875 23.9167 14.875Z"
                fill="white"
              />
            </svg>