  <svg
                xmlns="http://www.w3.org/2000/svg"
                width="50"
                height="50"
                viewBox="0 0 50 50"
                fill="none"
              >
                <path
                  d="M32.0623 10.8542L34.9998 16.7292C35.3957 17.5417 36.4582 18.3125 37.354 18.4792L42.6665 19.3542C46.0623 19.9167 46.854 22.375 44.4165 24.8333L40.2707 28.9792C39.5832 29.6667 39.1873 31.0208 39.4165 32L40.604 37.125C41.5415 41.1667 39.3748 42.75 35.8123 40.625L30.8332 37.6667C29.9373 37.125 28.4373 37.125 27.5415 37.6667L22.5623 40.625C18.9998 42.7292 16.8332 41.1667 17.7707 37.125L18.9582 32C19.1457 31 18.7498 29.6458 18.0623 28.9583L13.9165 24.8125C11.479 22.375 12.2707 19.9167 15.6665 19.3333L20.979 18.4583C21.8748 18.3125 22.9373 17.5208 23.3332 16.7083L26.2707 10.8333C27.8748 7.66667 30.4582 7.66667 32.0623 10.8542Z"
                  fill="#B2D235"
                />
              </svg>